<?xml version="1.0" encoding="iso-8859-1"?>
<!-- Generator: Adobe Illustrator 19.0.0, SVG Export Plug-In . SVG Version: 6.00 Build 0)  -->
<svg version="1.1" id="Capa_1" xmlns="http://www.w3.org/2000/svg" xmlns:xlink="http://www.w3.org/1999/xlink" x="0px" y="0px"
	 viewBox="0 0 512 512" style="enable-background:new 0 0 512 512;" xml:space="preserve">
<path style="fill:#E1E1E4;" d="M244.032,217.147c-3.485,7.519-10.795,12.183-19.083,12.183H40.402
	c-8.238,0-15.758-4.843-19.163-12.352c-3.395-7.499-2.077-16.357,3.355-22.548h-0.01l50.148-57.168
	c15.019-17.126,36.728-26.822,59.485-26.642c0.889,0.01,1.767,0.03,2.646,0.07c21.789,0.929,42.21,10.894,56.36,27.601l47.782,56.42
	C246.359,201.03,247.517,209.627,244.032,217.147z"/>
<path style="fill:#C8C6CD;" d="M244.032,217.147c-3.485,7.519-10.795,12.183-19.083,12.183h-88.084V110.688
	c21.789,0.929,42.21,10.894,56.36,27.601l47.782,56.42C246.359,201.03,247.517,209.627,244.032,217.147z"/>
<path style="fill:#BFD632;" d="M512,241.811c0,23.397-19.043,42.439-42.439,42.439H255.626l-34.441,117.133H57.348l-15.787-55.601
	l-8.498-29.957l-7.659-26.962l-8.498-29.957L0,199.372h469.561C492.957,199.372,512,218.415,512,241.811z"/>
<g>
	<polygon style="fill:#E1E1E4;" points="99.798,258.907 99.798,288.864 25.404,288.864 16.906,258.907 	"/>
	<polygon style="fill:#E1E1E4;" points="119.06,315.826 119.06,345.783 41.561,345.783 33.063,315.826 	"/>
</g>
<path style="fill:#80C626;" d="M512,241.811c0,23.397-19.043,42.439-42.439,42.439H255.626l-34.441,117.133h-84.32V199.372h332.696
	C492.957,199.372,512,218.415,512,241.811z"/>
<g>
</g>
<g>
</g>
<g>
</g>
<g>
</g>
<g>
</g>
<g>
</g>
<g>
</g>
<g>
</g>
<g>
</g>
<g>
</g>
<g>
</g>
<g>
</g>
<g>
</g>
<g>
</g>
<g>
</g>
</svg>
