<svg id="Layer_3" enable-background="new 0 0 64 64" height="512" viewBox="0 0 64 64" width="512" xmlns="http://www.w3.org/2000/svg"><path d="m22 51h3l7-5 1-11-3-9 1-9-6-4-4.586-10.09c-.252-.554-.805-.91-1.414-.91-.609 0-1.162.356-1.414.91l-4.586 10.09-6 4 1 9-3 9 1 11 7 5h5v1.343c0 3.622-1.439 7.096-4 9.657h6l.1-.199c1.25-2.499 1.9-5.255 1.9-8.05z" fill="#e39854"/><path d="m27 37c0 8.837-3.582 10-8 10s-8-1.163-8-10 3.582-22 8-22 8 13.163 8 22z" fill="#976947"/><path d="m56.972 46c.019-.321.028-.654.028-1 0-7.18-4.029-17-9-17s-9 9.82-9 17c0 .346.009.679.028 1" fill="#c18e59"/><path d="m56.972 46c.019-.321.028-.654.028-1 0-7.18-4.029-17-9-17s-9 9.82-9 17c0 .346.009.679.028 1" fill="#c18e59"/><path d="m59 46c0 8.837-4.925 16-11 16s-11-7.163-11-16z" fill="#c16b3f"/><path d="m41.575 58.969c6.359-.328 11.425-6 11.425-12.969h-16c0 5.344 1.808 10.063 4.575 12.969z" fill="#e39854"/><path d="m47 41h2v-12.864c-.328-.087-.662-.136-1-.136s-.672.049-1 .136z" fill="#976947"/><path d="m26 40h-2c-.551 0-1-.448-1-1s.449-1 1-1h2c.455 0 .824.311.945.728.034-.543.055-1.113.055-1.728 0-.575-.016-1.169-.045-1.775-.105.44-.483.775-.955.775h-2c-.551 0-1-.448-1-1s.449-1 1-1h2c.412 0 .766.251.919.607-.059-.932-.15-1.89-.272-2.86-.175.152-.397.253-.647.253h-2c-.551 0-1-.448-1-1s.449-1 1-1h2c.148 0 .285.036.411.094-.111-.702-.235-1.404-.375-2.101-.012 0-.023.007-.036.007h-2c-.551 0-1-.448-1-1s.449-1 1-1h1.595c-.165-.681-.344-1.349-.534-2h-1.061c-.395 0-.77.081-1.116.22-.125-.461-.354-.876-.665-1.22.48-.532.78-1.229.78-2s-.301-1.468-.78-2c.214-.237.385-.512.517-.807-1.115-1.96-2.386-3.193-3.736-3.193s-2.622 1.233-3.737 3.193c.132.295.303.57.517.807-.48.532-.78 1.229-.78 2s.301 1.468.78 2c-.311.345-.54.76-.664 1.22-.346-.139-.721-.22-1.116-.22h-1.061c-.19.651-.368 1.319-.534 2h1.595c.551 0 1 .448 1 1s-.449 1-1 1h-2c-.013 0-.024-.007-.036-.007-.14.697-.264 1.399-.375 2.101.126-.058.263-.094.411-.094h2c.551 0 1 .448 1 1s-.449 1-1 1h-2c-.25 0-.472-.101-.647-.253-.122.97-.212 1.928-.272 2.86.153-.356.507-.607.919-.607h2c.551 0 1 .448 1 1s-.449 1-1 1h-2c-.472 0-.85-.335-.955-.775-.029.606-.045 1.2-.045 1.775 0 .615.021 1.185.055 1.728.121-.417.49-.728.945-.728h2c.551 0 1 .448 1 1s-.449 1-1 1h-2c-.389 0-.717-.229-.883-.554.09.947.234 1.78.428 2.508.15.023.299.046.455.046h2c.395 0 .77-.081 1.116-.22.125.461.354.876.665 1.22-.48.532-.78 1.229-.78 2 0 .565.166 1.088.439 1.54 1.072.354 2.279.46 3.56.46s2.488-.106 3.561-.46c.273-.452.439-.975.439-1.54 0-.771-.301-1.468-.78-2 .311-.345.54-.76.665-1.22.345.139.72.22 1.115.22h2c.156 0 .305-.023.455-.046.194-.727.338-1.561.428-2.508-.166.325-.494.554-.883.554zm-6 6h-2c-.551 0-1-.448-1-1s.449-1 1-1h2c.551 0 1 .448 1 1s-.449 1-1 1zm0-4h-2c-.551 0-1-.448-1-1s.449-1 1-1h2c.551 0 1 .448 1 1s-.449 1-1 1zm0-4h-2c-.551 0-1-.448-1-1s.449-1 1-1h2c.551 0 1 .448 1 1s-.449 1-1 1zm0-4h-2c-.551 0-1-.448-1-1s.449-1 1-1h2c.551 0 1 .448 1 1s-.449 1-1 1zm0-4h-2c-.551 0-1-.448-1-1s.449-1 1-1h2c.551 0 1 .448 1 1s-.449 1-1 1zm0-4h-2c-.551 0-1-.448-1-1s.449-1 1-1h2c.551 0 1 .448 1 1s-.449 1-1 1zm0-4h-2c-.551 0-1-.448-1-1s.449-1 1-1h2c.551 0 1 .448 1 1s-.449 1-1 1zm0-4h-2c-.551 0-1-.448-1-1s.449-1 1-1h2c.551 0 1 .448 1 1s-.449 1-1 1z" fill="#c18e59"/></svg>