<svg height="512" viewBox="0 0 48 59" width="512" xmlns="http://www.w3.org/2000/svg"><g id="Page-1" fill="none" fill-rule="evenodd"><g id="027---Cupcake" fill-rule="nonzero" transform="translate(-1 -1)"><path id="Shape" d="m45.67 38.855v.011c-.36 1.991-2.084 9.739-8.652 19.086 0 0-2.182 1.088-12 1.088s-12-1.088-12-1.088c-6.568-9.347-8.292-17.095-8.652-19.086l3.3-2.5 33.75-.009z" fill="#804537"/><path id="Shape" d="m38.75 16.61c1.7831547 1.1075178 3.4280706 2.4234505 4.9 3.92l2.53 3.08c1.5209842 2.1930954 2.4885319 4.7217574 2.82 7.37.5098907 3.5879416-1.386011 7.0874433-4.67 8.62-3.55 1.59-8.69 1.66-11.55-1.34l-.25-.28c-.2264958-.2718396-.5727327-.414131-.9249256-.3801123-.3521929.0340186-.6647949.2399478-.8350744.5501123-1.0915185 2.1659464-3.3248562 3.5176012-5.75 3.48h-.04c-2.4251438.0376012-4.6584815-1.3140536-5.75-3.48-.1702795-.3101645-.4828815-.5160937-.8350744-.5501123-.3521929-.0340187-.6984298.1082727-.9249256.3801123l-.25.28c-2.86 3-8 2.93-11.55 1.34-3.28398901-1.5325567-5.17989075-5.0320584-4.67-8.62.33146807-2.6482426 1.29901582-5.1769046 2.82-7.37l2.53-3.08c2.29325704-2.2954893 4.9615919-4.1826006 7.89-5.58l3.68-1.48h.01c1.6659815-.5496889 3.3753803-.9578037 5.11-1.22 1.2982287-.2100053 2.6217713-.2100053 3.92 0 1.0916661.1626436 2.1733615.3863276 3.24.67z" fill="#a56a43"/><path id="Shape" d="m17.382 55.688c-.3342785.00005-.6464754-.1669303-.832-.445-2.231-3.338-4.391-9.76-4.482-10.032-.1750742-.5246705.1083295-1.0919257.633-1.2669999.5246705-.1750743 1.0919257.1083294 1.267.6329999.021.065 2.166 6.441 4.247 9.555.2050886.306593.2247444.7011912.0511397 1.0266478-.1736047.3254565-.5122761.5289163-.8811397.5293522z" fill="#a65a47"/><path id="Shape" d="m21.745 54.6c-.5522847 0-1-.4477153-1-1v-7.618c0-.5522847.4477153-1 1-1s1 .4477153 1 1v7.618c0 .5522847-.4477153 1-1 1z" fill="#a65a47"/><path id="Shape" d="m32.653 55.688c-.3688636-.0004359-.707535-.2038957-.8811397-.5293522-.1736047-.3254566-.1539489-.7200548.0511397-1.0266478 2.082-3.114 4.226-9.49 4.247-9.554.1130745-.3394023.3986287-.5926984.749097-.6644742.3504684-.0717757.7126063.0488734.9500001.3165.2373937.2676266.3139775.6415719.2009029.9809742-.091.272-2.25 6.694-4.482 10.032-.1861134.2789559-.4996591.4460551-.835.445z" fill="#a65a47"/><path id="Shape" d="m28.291 54.6c-.5522847 0-1-.4477153-1-1v-7.618c0-.5522847.4477153-1 1-1s1 .4477153 1 1v7.618c0 .5522847-.4477153 1-1 1z" fill="#a65a47"/><g fill="#603e26"><circle id="Oval" cx="5" cy="22" r="2"/><circle id="Oval" cx="9" cy="33" r="2"/><circle id="Oval" cx="16" cy="25" r="2"/><circle id="Oval" cx="16" cy="14" r="2"/><circle id="Oval" cx="25" cy="33" r="2"/><circle id="Oval" cx="34" cy="30" r="2"/><circle id="Oval" cx="42" cy="32" r="2"/><circle id="Oval" cx="45" cy="22" r="2"/></g><path id="Shape" d="m39.81 3.98-5.73 10.21h-.01l-.94 1.68-4.67 3.58c-.48-.34-.94-.67-1.37-1l3.11-5.53 6.12-10.9c.5412391-.96373687 1.7612631-1.30623902 2.725-.76499997s1.306239 1.76126308.765 2.72499997z" fill="#f29c1f"/><path id="Shape" d="m45.22 11.64-13.17 10.1c-1.2384132-.6958248-2.4369506-1.4603515-3.59-2.29l4.67-3.58 9.65-7.4c.8753713-.67378739 2.1312126-.51037133 2.805.365s.5103713 2.1312126-.365 2.805z" fill="#f0c419"/><path id="Shape" d="m35 24c-.0822727.0003241-.1642562-.0097558-.244-.03-1.114239-.3169029-2.1847761-.7710497-3.187-1.352-1.2727416-.7142986-2.5043488-1.4995358-3.689-2.352-.489-.348-.961-.685-1.4-1.022-1.8-1.338-3.08-2.44-3.133-2.486-.2936766-.2254083-.438793-.5946206-.3771915-.9596687.0616016-.365048.3198406-.6661944.6712232-.7827495.3513827-.116555.7384077-.0294454 1.0059683.2264182.013.011 1.287 1.105 3.035 2.406.432.331.882.654 1.352.987 1.1211169.8086452 2.2873348 1.5528479 3.493 2.229.852366.4984997 1.7628876.8901147 2.711 1.166.4888569.1224918.8101733.5896214.7497272 1.0899528-.0604461.5003315-.4837641.8775002-.9877272.8800472z" fill="#603e26"/></g></g></svg>