<svg id="Capa_1" enable-background="new 0 0 510.621 510.621" height="512" viewBox="0 0 510.621 510.621" width="512" xmlns="http://www.w3.org/2000/svg"><g><g><g><path d="m153.329 444.457c-84.546 0-153.329-70.406-153.329-156.947 0-42.614 16.342-96.366 42.648-140.28 31.317-52.277 70.624-81.067 110.681-81.067s79.365 28.79 110.681 81.067c26.306 43.914 42.647 97.666 42.647 140.28.001 86.541-68.782 156.947-153.328 156.947z" fill="#f9a54c"/><path d="m264.01 147.231c-31.317-52.277-70.624-81.067-110.681-81.067v378.293c84.546 0 153.329-70.406 153.329-156.946 0-42.615-16.342-96.367-42.648-140.28z" fill="#f99742"/></g><g fill="#fbc182"><path d="m113.62 314.387c-6.254 0-12.017-4.063-14.11-9.953-2.093-5.888-.265-12.685 4.6-16.647 4.867-3.964 11.823-4.481 17.218-1.27 5.365 3.193 8.257 9.674 7.003 15.8-1.418 6.918-7.62 12.07-14.711 12.07z"/><path d="m99.62 367.377c-6.258 0-12.013-4.042-14.11-9.942-2.092-5.888-.265-12.685 4.6-16.647 4.867-3.964 11.823-4.481 17.218-1.27 5.376 3.2 8.243 9.669 7.003 15.8-1.403 6.929-7.631 12.059-14.711 12.059z"/><path d="m59.62 327.387c-6.255 0-12.017-4.062-14.11-9.953-2.093-5.888-.265-12.685 4.6-16.647 4.867-3.964 11.823-4.481 17.218-1.27 5.363 3.193 8.257 9.676 7.003 15.8-1.418 6.918-7.621 12.07-14.711 12.07z"/></g></g><g><path d="m377.219 444.457c-73.558 0-133.401-61.232-133.401-136.497 0-36.844 14.105-83.278 36.812-121.182 27.21-45.423 61.514-70.439 96.59-70.439s69.379 25.016 96.59 70.439c22.706 37.904 36.811 84.338 36.811 121.182 0 75.264-59.844 136.497-133.402 136.497z" fill="#fbd9b0"/><path d="m473.809 186.778c-27.211-45.423-61.514-70.439-96.59-70.439v328.118c73.558 0 133.401-61.232 133.401-136.497.001-36.844-14.105-83.278-36.811-121.182z" fill="#fbc182"/></g></g></svg>