<svg id="Capa_1" enable-background="new 0 0 502 502" height="512" viewBox="0 0 502 502" width="512" xmlns="http://www.w3.org/2000/svg" xmlns:xlink="http://www.w3.org/1999/xlink"><linearGradient id="SVGID_1_" gradientUnits="userSpaceOnUse" x1="251" x2="251" y1="338.107" y2="159.227"><stop offset="0" stop-color="#ac6c58"/><stop offset="1" stop-color="#da9b8c"/></linearGradient><linearGradient id="SVGID_2_" gradientUnits="userSpaceOnUse" x1="43.616" x2="458.384" y1="380.865" y2="380.865"><stop offset="0" stop-color="#6fcd90"/><stop offset=".2304" stop-color="#72cf95"/><stop offset=".5209" stop-color="#79d4a5"/><stop offset=".8425" stop-color="#86dcbf"/><stop offset="1" stop-color="#8de1ce"/></linearGradient><linearGradient id="SVGID_3_" gradientUnits="userSpaceOnUse" x1="251" x2="251" y1="101.624" y2="214.969"><stop offset="0" stop-color="#f2e498"/><stop offset="1" stop-color="#faf6cb"/></linearGradient><linearGradient id="SVGID_4_" gradientUnits="userSpaceOnUse" x1="147.909" x2="331.522" y1="73.142" y2="73.142"><stop offset="0" stop-color="#f9edaf"/><stop offset="1" stop-color="#fffcdd"/></linearGradient><g><ellipse cx="251" cy="289.524" fill="url(#SVGID_1_)" rx="188.684" ry="165.404"/><path d="m192.545 238.683c2.334-9.437-3.537-18.887-12.997-21.128-17.225-4.079-34.105-9.656-50.549-16.719-9.236-3.966-16.896-10.066-22.664-17.472-8.326 8.711-15.661 18.175-21.822 28.275 8.547 9.022 18.911 16.305 30.674 21.357 18.364 7.887 37.214 14.105 56.448 18.649 9.27 2.19 18.573-3.517 20.86-12.763z" fill="#9c6254"/><path d="m99.125 442.143-54.171-142.602c-6.527-17.181 12.112-33.055 28.035-23.876l29.815 17.187c12.577 7.25 28.385 5.619 39.217-4.046l23.008-20.531c12.767-11.392 32.049-11.392 44.816 0l18.746 16.728c12.767 11.392 32.049 11.392 44.816 0l18.746-16.728c12.767-11.392 32.05-11.392 44.816 0l23.008 20.531c10.832 9.665 26.64 11.296 39.217 4.046l29.815-17.187c15.923-9.178 34.562 6.696 28.035 23.876l-54.171 142.601c-13.687 36.034-48.222 59.858-86.768 59.858h-130.21c-38.546 0-73.081-23.824-86.77-59.857z" fill="url(#SVGID_2_)"/><path d="m98.828 125.245c29.818-62.207 77.044-23.616 129.437-70.453 12.998-11.62 32.472-11.62 45.47 0 52.394 46.838 99.619 8.246 129.437 70.453 12.542 29.206-.965 63.05-30.171 75.592-38.648 16.598-79.695 25.013-122.001 25.013s-83.353-8.415-122.001-25.013c-29.206-12.542-42.714-46.386-30.171-75.592z" fill="url(#SVGID_3_)"/><path d="m127.175 64.421c24.263-50.62 62.691-19.217 105.325-57.33 10.577-9.455 26.423-9.455 37 0 42.634 38.113 81.062 6.71 105.325 57.329 10.206 23.765-.786 51.305-24.551 61.511-31.449 13.506-64.85 20.354-99.274 20.354s-67.826-6.848-99.275-20.354c-23.765-10.205-34.756-37.745-24.55-61.51z" fill="url(#SVGID_4_)"/><g><ellipse cx="163.114" cy="438.432" fill="#efc5db" rx="14.936" ry="12.003"/><ellipse cx="338.886" cy="438.432" fill="#efc5db" rx="14.936" ry="12.003"/><path d="m188.721 412.78c7.183 0 13.813 1.589 19.159 4.273 4.544 2.281 9.962-.801 10.365-5.87.113-1.423.125-2.875.029-4.348-.991-15.146-13.602-27.24-28.775-27.629-16.713-.428-30.396 12.992-30.396 29.608 0 .843.036 1.678.105 2.503.422 5.01 5.857 7.995 10.349 5.738 5.348-2.685 11.979-4.275 19.164-4.275z" fill="#fff"/><path d="m251 448.618c-6.447 0-12.894-2.155-18.274-6.465-4.989-3.997-5.794-11.282-1.797-16.271 3.997-4.99 11.282-5.793 16.271-1.797 2.237 1.792 5.361 1.792 7.598 0 4.988-3.997 12.273-3.193 16.271 1.797 3.997 4.989 3.193 12.274-1.797 16.271-5.378 4.31-11.825 6.465-18.272 6.465z" fill="#3b3b44"/><path d="m188.721 412.78c5.926 0 11.473 1.082 16.237 2.967.911-2.129 1.415-4.47 1.415-6.933 0-9.749-7.903-17.652-17.652-17.652s-17.652 7.903-17.652 17.652c0 2.463.504 4.803 1.415 6.933 4.764-1.885 10.312-2.967 16.237-2.967z" fill="#3b3b44"/><path d="m313.279 412.78c7.183 0 13.813 1.589 19.159 4.273 4.544 2.281 9.962-.801 10.365-5.87.113-1.423.125-2.875.029-4.348-.991-15.146-13.602-27.24-28.775-27.629-16.713-.428-30.396 12.992-30.396 29.608 0 .843.036 1.678.105 2.503.422 5.01 5.857 7.995 10.349 5.738 5.347-2.685 11.979-4.275 19.164-4.275z" fill="#fff"/><path d="m313.279 412.78c5.926 0 11.474 1.082 16.237 2.967.911-2.129 1.415-4.47 1.415-6.933 0-9.749-7.903-17.652-17.652-17.652s-17.652 7.903-17.652 17.652c0 2.463.504 4.803 1.415 6.933 4.763-1.885 10.311-2.967 16.237-2.967z" fill="#3b3b44"/></g><g fill="#3cb667"><path d="m251 350.28c11.046 0 20-8.954 20-20v-43.321c-11.864 8.781-28.136 8.781-40 0v43.321c0 11.046 8.954 20 20 20z"/><path d="m106.148 294.512c11.942 5.221 25.98 3.12 35.872-5.707l3.238-2.889 12.153 45.145c2.871 10.666-3.448 21.641-14.114 24.512-10.642 2.866-21.633-3.425-24.511-14.113z"/><path d="m395.852 294.512c-11.942 5.221-25.98 3.12-35.872-5.707l-3.238-2.889-12.153 45.145c-2.871 10.666 3.448 21.641 14.114 24.512 10.642 2.866 21.634-3.425 24.511-14.113z"/></g><path d="m211.445 160.946c1.706-9.273-4.226-18.283-13.445-20.259-15.802-3.387-31.262-8.308-46.274-14.756-13.963-5.996-23.508-17.978-26.944-31.66-9.388 5.688-17.897 14.665-25.343 29.743 8.762 15.154 22.102 27.045 38.475 34.076 17.119 7.353 34.743 12.968 52.757 16.832 9.605 2.059 18.996-4.315 20.774-13.976z" fill="#f5c98d"/><path d="m168.009 70.661-16.506-16.506c-6.248-6.248-6.248-16.379 0-22.627s16.379-6.25 22.627 0l16.506 16.506c6.249 6.248 6.249 16.379.001 22.627-6.248 6.247-16.38 6.25-22.628 0z" fill="#ec6f80"/><path d="m297.585 103.962h-27.847c-8.836 0-16-7.163-16-16s7.164-16 16-16h27.847c8.836 0 16 7.163 16 16s-7.164 16-16 16z" fill="#6dc8dd"/><path d="m363.024 195.437c-6.248 6.249-16.379 6.249-22.627 0l-17.629-17.629c-6.248-6.248-6.248-16.379 0-22.627s16.379-6.248 22.627 0l17.629 17.629c6.249 6.249 6.248 16.378 0 22.627z" fill="#ec6f80"/><path d="m190.307 197.204-15.849 15.849c-6.248 6.249-16.379 6.249-22.627 0-6.248-6.248-6.248-16.379 0-22.627l15.849-15.849c6.248-6.249 16.379-6.249 22.627 0 6.249 6.249 6.248 16.379 0 22.627z" fill="#6dc8dd"/></g></svg>