<svg id="Capa_1" enable-background="new 0 0 512.001 512.001" height="512" viewBox="0 0 512.001 512.001" width="512" xmlns="http://www.w3.org/2000/svg"><g><path d="m7.5 255.854c0-188.75 128.425-198.469 179.643-243.111 8.058-7.024 19.999-7.024 28.058 0 51.219 44.642 179.643 54.36 179.643 243.111 0 119.219-86.71 215.866-193.672 215.866s-193.672-96.647-193.672-215.866z" fill="#e0b799"/><path d="m322.533 424.071c-223.428-42.7-250.947-262.85-214.033-364.977-50.363 30.312-101 78.238-101 196.76 0 119.219 86.71 215.866 193.672 215.866 45.951-.001 88.155-17.849 121.361-47.649z" fill="#d1986f"/><g><path d="m117.766 358.801c-2.393 0-4.743-1.143-6.196-3.266-9.338-13.646-33.548-65.973-32.748-102.958.088-4.086 3.429-7.338 7.495-7.338.055 0 .109.001.165.002 4.142.089 7.426 3.519 7.336 7.66-.683 31.563 21.082 80.938 30.131 94.163 2.339 3.419 1.464 8.086-1.954 10.425-1.296.888-2.77 1.312-4.229 1.312z" fill="#e0b799"/><g fill="#d1986f"><path d="m126.019 207.659c-3.593 0-6.768-2.59-7.387-6.251-4.712-27.873 2.613-44.723 9.076-59.588 5.488-12.626 9.823-22.598 6.522-37.908-.872-4.049 1.702-8.039 5.752-8.912 4.044-.868 8.039 1.702 8.912 5.752 4.316 20.025-1.655 33.763-7.431 47.048-5.904 13.583-12.011 27.629-8.041 51.108.69 4.084-2.062 7.955-6.146 8.646-.422.071-.842.105-1.257.105z"/><path d="m235.677 320.427c-.196 0-.394-.007-.592-.022-4.13-.323-7.216-3.933-6.894-8.061.988-12.64-2.435-29.329-9.898-48.264-6.915-17.542-14.673-30.551-17.809-34.979-2.395-3.38-1.596-8.061 1.785-10.455 3.378-2.396 8.061-1.596 10.455 1.785 9.064 12.796 33.113 58.626 30.422 93.08-.307 3.931-3.592 6.916-7.469 6.916z"/><path d="m273.849 146.307c-1.358 0-2.732-.368-3.968-1.141-12.383-7.739-38.981-32.44-42.824-45.892-1.139-3.982 1.168-8.134 5.15-9.271 3.979-1.143 8.134 1.167 9.271 5.15 2.037 7.129 23.78 29.436 36.352 37.292 3.513 2.195 4.581 6.823 2.386 10.335-1.423 2.277-3.867 3.527-6.367 3.527z"/></g><path d="m201.177 428.138c-2.808 0-5.501-1.585-6.783-4.291-1.773-3.743-.176-8.216 3.567-9.989 9.302-4.406 27.277-22.056 36.315-45.944 1.466-3.875 5.796-5.828 9.669-4.36 3.874 1.466 5.826 5.795 4.36 9.669-9.996 26.42-30.091 47.64-43.923 54.192-1.036.491-2.129.723-3.205.723z" fill="#e0b799"/></g><path d="m357.32 224.137c0-27.978-22.681-50.658-50.658-50.658-36.587 0-60.84 37.528-46.53 70.702-35.929 17.46-48.793 61.896-28.498 95.674-13.083 10.301-21.493 26.271-21.493 44.214 0 28.22 20.779 51.583 47.871 55.634-9.405 32.465 14.997 64.773 48.651 64.773 27.978 0 50.658-22.681 50.658-50.658v-229.681z" fill="#f5e2a2"/><g fill="#fbf1cf"><path d="m290.892 421.222c-4.143 0-7.5-3.358-7.5-7.5 0-16.679 13.568-30.247 30.247-30.247 4.143 0 7.5 3.357 7.5 7.5s-3.357 7.5-7.5 7.5c-8.407 0-15.247 6.84-15.247 15.247 0 4.143-3.358 7.5-7.5 7.5z"/><path d="m299.209 348.715c-4.143 0-7.5-3.357-7.5-7.5 0-8.407-6.84-15.247-15.247-15.247-4.143 0-7.5-3.358-7.5-7.5 0-4.143 3.357-7.5 7.5-7.5 16.679 0 30.247 13.568 30.247 30.247 0 4.143-3.357 7.5-7.5 7.5z"/><path d="m308.928 281.509c-1.919 0-3.839-.732-5.304-2.196-11.793-11.794-11.793-30.983 0-42.777 2.93-2.928 7.678-2.928 10.607 0 2.929 2.93 2.929 7.678 0 10.607-5.945 5.944-5.945 15.618 0 21.563 2.929 2.93 2.929 7.678 0 10.607-1.464 1.464-3.384 2.196-5.303 2.196z"/></g><path d="m357.32 224.137c0-27.978 22.681-50.658 50.658-50.658 36.587 0 60.84 37.528 46.53 70.702 35.929 17.46 48.793 61.896 28.498 95.674 13.083 10.301 21.493 26.271 21.493 44.214 0 28.22-20.779 51.583-47.871 55.634 9.405 32.465-14.997 64.773-48.651 64.773-27.978 0-50.658-22.681-50.658-50.658v-229.681z" fill="#fbf1cf"/><g fill="#f5e2a2"><path d="m423.748 421.222c-4.142 0-7.5-3.358-7.5-7.5 0-8.407-6.84-15.247-15.247-15.247-4.143 0-7.5-3.357-7.5-7.5s3.357-7.5 7.5-7.5c16.679 0 30.247 13.568 30.247 30.247 0 4.143-3.357 7.5-7.5 7.5z"/><path d="m415.431 348.715c-4.143 0-7.5-3.357-7.5-7.5 0-16.679 13.568-30.247 30.247-30.247 4.143 0 7.5 3.357 7.5 7.5 0 4.142-3.357 7.5-7.5 7.5-8.407 0-15.247 6.84-15.247 15.247 0 4.143-3.358 7.5-7.5 7.5z"/><path d="m405.712 281.509c-1.919 0-3.839-.732-5.304-2.196-2.929-2.93-2.929-7.678 0-10.607 5.945-5.944 5.945-15.618 0-21.563-2.929-2.93-2.929-7.678 0-10.607 2.93-2.928 7.678-2.928 10.607 0 11.793 11.794 11.793 30.983 0 42.777-1.464 1.464-3.384 2.196-5.303 2.196z"/></g><path d="m15 255.853c0-184.052 124.203-191.38 177.071-237.456 5.272-4.596 12.928-4.597 18.202 0 32.469 28.3 92.141 42.11 133.08 91.232 2.651 3.183 7.38 3.611 10.564.96 3.182-2.652 3.611-7.382.96-10.563-43.258-51.904-104.296-66.395-134.748-92.937-10.808-9.418-27.107-9.417-37.913 0-49.45 43.101-182.216 55.351-182.216 248.764 0 64.393 25.036 125.666 68.689 168.109 2.968 2.887 7.717 2.822 10.605-.148s2.821-7.719-.148-10.605c-40.765-39.637-64.146-96.991-64.146-157.356zm477.464 82.299c17.026-34.751 4.869-77.199-28.717-97.479 13.107-44.071-28.311-85.84-72.847-72.133-3.972-13.285-9.011-25.775-15.055-37.202-1.936-3.661-6.473-5.06-10.137-3.123-3.661 1.937-5.06 6.476-3.123 10.137 5.892 11.139 10.777 23.398 14.556 36.508-8.21 5.156-15.042 12.302-19.823 20.761-9.99-17.676-28.947-29.643-50.658-29.643-39.151 0-66.739 37.822-55.769 74.695-33.661 20.325-45.708 62.799-28.717 97.479-35.247 33.843-20.654 93.88 26.923 107.292-.591 3.987-.754 7.982-.519 11.936-47.737 14.039-99.591 6.474-143.086-22.757-3.438-2.312-8.098-1.397-10.408 2.041-2.311 3.438-1.396 8.098 2.041 10.408 47.558 31.962 103.563 39.602 154.326 25.092 7.645 22.816 28.987 39.811 55.209 39.811 21.711 0 40.669-11.967 50.658-29.643 9.99 17.676 28.947 29.643 50.658 29.643 35.976 0 62.673-32.068 57.563-66.531 47.378-13.356 62.34-73.287 26.925-107.292zm-142.645 115.665c0 23.798-19.36 43.158-43.158 43.158-28.736 0-49.446-27.572-41.446-55.186 1.265-4.37-1.619-8.835-6.095-9.505-23.647-3.535-41.48-24.264-41.48-48.216 0-15.03 6.791-28.998 18.633-38.321 2.968-2.337 3.734-6.517 1.789-9.755-17.71-29.478-7.176-69.263 25.348-85.066 3.607-1.753 5.197-6.034 3.608-9.717-11.965-27.735 7.9-60.232 39.643-60.232 23.798 0 43.158 19.36 43.158 43.158zm105.701-21.532c-4.48.671-7.358 5.141-6.095 9.505 8.012 27.655-12.73 55.186-41.447 55.186-23.798 0-43.158-19.36-43.158-43.158v-229.682c0-23.798 19.36-43.158 43.158-43.158 31.731 0 51.621 32.47 39.645 60.232-1.589 3.683.001 7.964 3.608 9.717 32.461 15.773 43.088 55.538 25.348 85.066-1.945 3.238-1.179 7.418 1.789 9.755 11.841 9.323 18.632 23.291 18.632 38.321 0 23.952-17.833 44.681-41.48 48.216z"/></g></svg>