<svg height="512pt" viewBox="-26 0 512 512" width="512pt" xmlns="http://www.w3.org/2000/svg"><path d="m229.898438 512c-67.519532 0-121.632813-14.59375-160.832032-43.371094-45.832031-33.644531-69.066406-84.914062-69.066406-152.378906 0-82.730469 59.386719-167.136719 94.789062-210.082031 23.53125-28.550781 49.824219-55.007813 74.027344-74.5 26.09375-21.011719 46.644532-31.667969 61.082032-31.667969s34.988281 10.65625 61.085937 31.667969c24.207031 19.492187 50.5 45.949219 74.035156 74.5 35.402344 42.945312 94.792969 127.347656 94.792969 210.082031 0 67.46875-23.238281 118.734375-69.070312 152.378906-39.203126 28.777344-93.320313 43.371094-160.84375 43.371094zm0 0" fill="#f5a96c"/><path d="m365.019531 106.167969c-23.535156-28.550781-49.828125-55.007813-74.035156-74.5-26.089844-21.007813-46.640625-31.66406275-61.078125-31.667969v512c67.519531 0 121.632812-14.59375 160.835938-43.371094 45.832031-33.644531 69.070312-84.914062 69.070312-152.378906 0-82.734375-59.390625-167.136719-94.792969-210.082031zm0 0" fill="#d98955"/><path d="m449.496094 386.898438c6.855468-21.097657 10.316406-44.667969 10.316406-70.648438 0-82.734375-59.390625-167.136719-94.792969-210.085938-23.535156-28.546874-49.828125-55.007812-74.035156-74.496093-26.097656-21.011719-46.648437-31.667969-61.085937-31.667969s-34.988282 10.65625-61.082032 31.667969c-24.207031 19.492187-50.496094 45.949219-74.027344 74.5-35.402343 42.945312-94.789062 127.351562-94.789062 210.082031 0 25.980469 3.460938 49.550781 10.316406 70.648438 42.230469-3.921876 122.421875-9.882813 219.589844-9.882813 97.171875 0 177.359375 5.960937 219.589844 9.882813zm0 0" fill="#da7e4a"/><path d="m365.019531 106.167969c-23.535156-28.550781-49.828125-55.007813-74.035156-74.5-26.089844-21.007813-46.640625-31.66406275-61.078125-31.667969v377.015625c97.171875 0 177.359375 5.960937 219.589844 9.882813 6.855468-21.097657 10.316406-44.667969 10.316406-70.648438 0-82.734375-59.390625-167.136719-94.792969-210.082031zm0 0" fill="#cb6c35"/><path d="m321.046875 108.792969c-14.84375-28.582031-31.457031-55.105469-46.773437-74.683594-22.703126-29.019531-35.117188-33.753906-43.359376-34.0859375-.339843-.0117187-.679687-.0234375-1.015624-.0234375-.003907 0-.003907 0-.007813 0-.328125 0-.667969.0117188-1.003906.0234375-8.242188.3320315-20.652344 5.0664065-43.355469 34.0859375-15.316406 19.578125-31.925781 46.101563-46.769531 74.6875-22.125 42.609375-59.246094 126.21875-59.246094 207.453125 0 23.714844 1.882813 45.410156 5.613281 65.039062 9.566406-.5625 19.664063-1.097656 30.222656-1.589843-3.878906-18.710938-5.835937-39.886719-5.835937-63.449219 0-72.074219 32.894531-148.132812 52.507813-187.054688 9.585937-19.027343 20.117187-37.351562 30.550781-53.269531-2.816407 11.527344-5.601563 23.925781-8.246094 36.753907-8.644531 41.957031-23.148437 124.191406-23.148437 203.570312 0 22.457031.683593 43.03125 2.046874 61.6875 9.742188-.265625 19.746094-.484375 30.003907-.640625-1.363281-18.234375-2.050781-38.601563-2.050781-61.046875 0-71.855469 12.664062-147.363281 20.214843-185.976562 6.617188-33.832032 13.222657-59.996094 18.507813-77.789063 5.289062 17.792969 11.898437 43.957031 18.511718 77.792969 7.550782 38.609375 20.21875 114.117187 20.21875 185.972656 0 22.445312-.6875 42.8125-2.054687 61.046875 10.257813.15625 20.265625.375 30.007813.640625 1.359374-18.65625 2.046874-39.230469 2.046874-61.6875 0-79.378906-14.503906-161.613281-23.152343-203.570312-2.640625-12.824219-5.425781-25.21875-8.242188-36.746094 10.433594 15.914062 20.960938 34.234375 30.546875 53.261718 19.609375 38.917969 52.511719 114.976563 52.511719 187.054688 0 23.5625-1.957031 44.738281-5.835937 63.449219 10.558593.492187 20.652343 1.027343 30.222656 1.589843 3.730468-19.628906 5.613281-41.324218 5.613281-65.039062 0-81.234375-37.121094-164.847656-59.25-207.457031zm0 0" fill="#a15427"/><path d="m321.046875 108.792969c-14.84375-28.582031-31.457031-55.105469-46.773437-74.683594-22.703126-29.019531-35.117188-33.753906-43.359376-34.0859375-.335937-.0117187-.675781-.0234375-1.007812-.0234375v52.488281c5.285156 17.792969 11.894531 43.953125 18.507812 77.789063 7.554688 38.609375 20.21875 114.117187 20.21875 185.972656 0 22.445312-.6875 42.8125-2.050781 61.046875 10.253907.15625 20.261719.375 30.003907.640625 1.359374-18.65625 2.046874-39.230469 2.046874-61.6875 0-79.378906-14.503906-161.613281-23.148437-203.570312-2.644531-12.824219-5.429687-25.21875-8.246094-36.746094 10.433594 15.914062 20.960938 34.234375 30.546875 53.261718 19.613282 38.917969 52.511719 114.976563 52.511719 187.054688 0 23.5625-1.953125 44.738281-5.835937 63.449219 10.558593.492187 20.652343 1.027343 30.222656 1.589843 3.730468-19.628906 5.613281-41.324218 5.613281-65.039062 0-81.234375-37.121094-164.847656-59.25-207.457031zm0 0" fill="#883f2e"/></svg>